<mxfile host="app.diagrams.net" modified="2023-12-18T02:20:45.238Z" agent="Mozilla/5.0 (Macintosh; Intel Mac OS X 10_15_7) AppleWebKit/537.36 (KHTML, like Gecko) Chrome/120.0.0.0 Safari/537.36" etag="WFQ_sXmKYs_Vsxn4HKnR" version="22.1.11" type="device">
  <diagram name="Page-1" id="uVbhkwt2qtJtsNktH3gB">
    <mxGraphModel dx="3154" dy="1273" grid="1" gridSize="10" guides="1" tooltips="1" connect="1" arrows="1" fold="1" page="1" pageScale="1" pageWidth="850" pageHeight="1100" math="0" shadow="0">
      <root>
        <mxCell id="0" />
        <mxCell id="1" parent="0" />
        <mxCell id="UFdFHpr_LtkekEf1Vfaj-1" value="&lt;div style=&quot;font-size: 20px;&quot;&gt;&lt;font color=&quot;#4d4d4d&quot; style=&quot;font-size: 20px;&quot;&gt;&lt;b style=&quot;font-size: 20px;&quot;&gt;ExportApiEndpoint&lt;/b&gt;&lt;/font&gt;&lt;/div&gt;" style="rounded=1;whiteSpace=wrap;html=1;strokeColor=#4D4D4D;strokeWidth=3;fillColor=#F7941E;fontFamily=Ubuntu;fontSize=20;" parent="1" vertex="1">
          <mxGeometry y="440" width="200" height="60" as="geometry" />
        </mxCell>
        <mxCell id="-a8GtsBu0SZ16K51fPce-3" style="edgeStyle=orthogonalEdgeStyle;rounded=0;orthogonalLoop=1;jettySize=auto;html=1;entryX=0.5;entryY=0;entryDx=0;entryDy=0;strokeWidth=3;fontFamily=Ubuntu;fontSize=20;" edge="1" parent="1" source="UFdFHpr_LtkekEf1Vfaj-3" target="UFdFHpr_LtkekEf1Vfaj-1">
          <mxGeometry relative="1" as="geometry" />
        </mxCell>
        <mxCell id="UFdFHpr_LtkekEf1Vfaj-3" value="&lt;div style=&quot;font-size: 20px;&quot;&gt;&lt;font color=&quot;#4d4d4d&quot; style=&quot;font-size: 20px;&quot;&gt;&lt;b style=&quot;font-size: 20px;&quot;&gt;&amp;lt;ResultStorageEngine&amp;gt;&lt;/b&gt;&lt;/font&gt;&lt;br style=&quot;font-size: 20px;&quot;&gt;&lt;/div&gt;" style="rounded=1;whiteSpace=wrap;html=1;strokeColor=#4D4D4D;strokeWidth=3;fillColor=#F7941E;dashed=1;fontFamily=Ubuntu;fontSize=20;" parent="1" vertex="1">
          <mxGeometry x="220" y="300" width="240" height="60" as="geometry" />
        </mxCell>
        <mxCell id="-a8GtsBu0SZ16K51fPce-1" style="edgeStyle=orthogonalEdgeStyle;rounded=0;orthogonalLoop=1;jettySize=auto;html=1;entryX=0.75;entryY=0;entryDx=0;entryDy=0;strokeWidth=3;fontFamily=Ubuntu;fontSize=20;" edge="1" parent="1" source="UFdFHpr_LtkekEf1Vfaj-4" target="UFdFHpr_LtkekEf1Vfaj-3">
          <mxGeometry relative="1" as="geometry" />
        </mxCell>
        <mxCell id="-a8GtsBu0SZ16K51fPce-9" style="edgeStyle=orthogonalEdgeStyle;rounded=0;orthogonalLoop=1;jettySize=auto;html=1;exitX=1;exitY=0.5;exitDx=0;exitDy=0;startArrow=classic;startFill=1;strokeWidth=3;fontFamily=Ubuntu;fontSize=20;" edge="1" parent="1" source="UFdFHpr_LtkekEf1Vfaj-4" target="-a8GtsBu0SZ16K51fPce-8">
          <mxGeometry relative="1" as="geometry" />
        </mxCell>
        <mxCell id="UFdFHpr_LtkekEf1Vfaj-4" value="&lt;div style=&quot;font-size: 20px;&quot;&gt;&lt;font color=&quot;#4d4d4d&quot; style=&quot;font-size: 20px;&quot;&gt;&lt;b style=&quot;font-size: 20px;&quot;&gt;FileResultStorageEngine&lt;/b&gt;&lt;/font&gt;&lt;br style=&quot;font-size: 20px;&quot;&gt;&lt;/div&gt;" style="rounded=1;whiteSpace=wrap;html=1;strokeColor=#4D4D4D;strokeWidth=3;fillColor=#F7941E;fontFamily=Ubuntu;fontSize=20;" parent="1" vertex="1">
          <mxGeometry x="480" y="200" width="260" height="60" as="geometry" />
        </mxCell>
        <mxCell id="-a8GtsBu0SZ16K51fPce-2" style="edgeStyle=orthogonalEdgeStyle;rounded=0;orthogonalLoop=1;jettySize=auto;html=1;exitX=0;exitY=0.5;exitDx=0;exitDy=0;entryX=0.75;entryY=1;entryDx=0;entryDy=0;strokeWidth=3;fontFamily=Ubuntu;fontSize=20;" edge="1" parent="1" source="UFdFHpr_LtkekEf1Vfaj-5" target="UFdFHpr_LtkekEf1Vfaj-3">
          <mxGeometry relative="1" as="geometry" />
        </mxCell>
        <mxCell id="-a8GtsBu0SZ16K51fPce-5" style="edgeStyle=orthogonalEdgeStyle;rounded=0;orthogonalLoop=1;jettySize=auto;html=1;exitX=1;exitY=0.5;exitDx=0;exitDy=0;strokeWidth=3;startArrow=classic;startFill=1;fontFamily=Ubuntu;fontSize=20;" edge="1" parent="1" source="UFdFHpr_LtkekEf1Vfaj-5" target="-a8GtsBu0SZ16K51fPce-4">
          <mxGeometry relative="1" as="geometry" />
        </mxCell>
        <mxCell id="UFdFHpr_LtkekEf1Vfaj-5" value="&lt;div style=&quot;font-size: 20px;&quot;&gt;&lt;font color=&quot;#4d4d4d&quot; style=&quot;font-size: 20px;&quot;&gt;&lt;b style=&quot;font-size: 20px;&quot;&gt;RedisResultStorageEngine&lt;/b&gt;&lt;/font&gt;&lt;br style=&quot;font-size: 20px;&quot;&gt;&lt;/div&gt;" style="rounded=1;whiteSpace=wrap;html=1;strokeColor=#4D4D4D;strokeWidth=3;fillColor=#F7941E;fontFamily=Ubuntu;fontSize=20;" parent="1" vertex="1">
          <mxGeometry x="480" y="380" width="260" height="60" as="geometry" />
        </mxCell>
        <mxCell id="-a8GtsBu0SZ16K51fPce-4" value="" style="image;sketch=0;aspect=fixed;html=1;points=[];align=center;fontSize=20;image=img/lib/mscae/Cache_Redis_Product.svg;fontFamily=Ubuntu;" vertex="1" parent="1">
          <mxGeometry x="820" y="374.5" width="84.52" height="71" as="geometry" />
        </mxCell>
        <mxCell id="-a8GtsBu0SZ16K51fPce-8" value="&lt;b style=&quot;font-size: 20px;&quot;&gt;&lt;font style=&quot;font-size: 20px;&quot;&gt;Local&lt;br style=&quot;font-size: 20px;&quot;&gt;FS&lt;/font&gt;&lt;/b&gt;" style="shape=note;whiteSpace=wrap;html=1;backgroundOutline=1;darkOpacity=0.05;strokeWidth=3;strokeColor=#4D4D4D;fontFamily=Ubuntu;fontSize=20;" vertex="1" parent="1">
          <mxGeometry x="822.26" y="180" width="80" height="100" as="geometry" />
        </mxCell>
        <mxCell id="-a8GtsBu0SZ16K51fPce-27" style="edgeStyle=orthogonalEdgeStyle;rounded=0;orthogonalLoop=1;jettySize=auto;html=1;exitX=1;exitY=0.5;exitDx=0;exitDy=0;entryX=0;entryY=0.5;entryDx=0;entryDy=0;strokeColor=#4D4D4D;strokeWidth=3;fontFamily=Ubuntu;fontSize=20;" edge="1" parent="1" source="-a8GtsBu0SZ16K51fPce-10" target="-a8GtsBu0SZ16K51fPce-15">
          <mxGeometry relative="1" as="geometry" />
        </mxCell>
        <mxCell id="-a8GtsBu0SZ16K51fPce-10" value="&lt;div style=&quot;font-size: 20px;&quot;&gt;&lt;font color=&quot;#4d4d4d&quot; style=&quot;font-size: 20px;&quot;&gt;&lt;b style=&quot;font-size: 20px;&quot;&gt;RequestScope&lt;/b&gt;&lt;/font&gt;&lt;/div&gt;" style="rounded=1;whiteSpace=wrap;html=1;strokeColor=#4D4D4D;strokeWidth=3;fillColor=#F7941E;fontFamily=Ubuntu;fontSize=20;" vertex="1" parent="1">
          <mxGeometry x="1190" y="790" width="170" height="60" as="geometry" />
        </mxCell>
        <mxCell id="-a8GtsBu0SZ16K51fPce-62" style="edgeStyle=orthogonalEdgeStyle;rounded=0;orthogonalLoop=1;jettySize=auto;html=1;exitX=0.5;exitY=0;exitDx=0;exitDy=0;entryX=1;entryY=0.5;entryDx=0;entryDy=0;strokeWidth=3;strokeColor=#4D4D4D;" edge="1" parent="1" source="-a8GtsBu0SZ16K51fPce-12" target="-a8GtsBu0SZ16K51fPce-36">
          <mxGeometry relative="1" as="geometry" />
        </mxCell>
        <mxCell id="-a8GtsBu0SZ16K51fPce-64" style="edgeStyle=orthogonalEdgeStyle;rounded=0;orthogonalLoop=1;jettySize=auto;html=1;exitX=0;exitY=0.5;exitDx=0;exitDy=0;strokeColor=#4D4D4D;strokeWidth=3;" edge="1" parent="1" source="-a8GtsBu0SZ16K51fPce-12" target="-a8GtsBu0SZ16K51fPce-14">
          <mxGeometry relative="1" as="geometry">
            <Array as="points">
              <mxPoint x="1500" y="550" />
              <mxPoint x="1500" y="550" />
            </Array>
          </mxGeometry>
        </mxCell>
        <mxCell id="-a8GtsBu0SZ16K51fPce-12" value="&lt;div style=&quot;font-size: 20px;&quot;&gt;&lt;font color=&quot;#4d4d4d&quot; style=&quot;font-size: 20px;&quot;&gt;&lt;b style=&quot;font-size: 20px;&quot;&gt;TableExportHook&lt;/b&gt;&lt;/font&gt;&lt;/div&gt;" style="rhombus;whiteSpace=wrap;html=1;strokeColor=#4D4D4D;strokeWidth=3;fillColor=#F7941E;fontFamily=Ubuntu;fontSize=20;" vertex="1" parent="1">
          <mxGeometry x="1615" y="503" width="220" height="95" as="geometry" />
        </mxCell>
        <mxCell id="-a8GtsBu0SZ16K51fPce-17" style="edgeStyle=orthogonalEdgeStyle;rounded=0;orthogonalLoop=1;jettySize=auto;html=1;exitX=1;exitY=0.5;exitDx=0;exitDy=0;strokeWidth=3;strokeColor=#4D4D4D;fontFamily=Ubuntu;fontSize=20;" edge="1" parent="1" source="-a8GtsBu0SZ16K51fPce-13" target="-a8GtsBu0SZ16K51fPce-16">
          <mxGeometry relative="1" as="geometry" />
        </mxCell>
        <mxCell id="-a8GtsBu0SZ16K51fPce-13" value="&lt;div style=&quot;font-size: 20px;&quot;&gt;&lt;font color=&quot;#4d4d4d&quot; style=&quot;font-size: 20px;&quot;&gt;&lt;b style=&quot;font-size: 20px;&quot;&gt;JsonApiEndpoint&lt;/b&gt;&lt;/font&gt;&lt;/div&gt;" style="rounded=1;whiteSpace=wrap;html=1;strokeColor=#4D4D4D;strokeWidth=3;fillColor=#F7941E;fontFamily=Ubuntu;fontSize=20;" vertex="1" parent="1">
          <mxGeometry x="10" y="670" width="180" height="60" as="geometry" />
        </mxCell>
        <mxCell id="-a8GtsBu0SZ16K51fPce-14" value="&lt;div style=&quot;font-size: 20px;&quot;&gt;&lt;font color=&quot;#4d4d4d&quot; style=&quot;font-size: 20px;&quot;&gt;&lt;b style=&quot;font-size: 20px;&quot;&gt;EntityDictionary&lt;/b&gt;&lt;/font&gt;&lt;/div&gt;" style="rounded=1;whiteSpace=wrap;html=1;strokeColor=#4D4D4D;strokeWidth=3;fillColor=#F7941E;fontFamily=Ubuntu;fontSize=20;" vertex="1" parent="1">
          <mxGeometry x="970" y="520" width="195" height="60" as="geometry" />
        </mxCell>
        <mxCell id="-a8GtsBu0SZ16K51fPce-29" style="edgeStyle=orthogonalEdgeStyle;rounded=0;orthogonalLoop=1;jettySize=auto;html=1;exitX=0.25;exitY=0;exitDx=0;exitDy=0;strokeWidth=3;strokeColor=#4D4D4D;startArrow=classic;startFill=1;endArrow=none;endFill=0;fontFamily=Ubuntu;fontSize=20;" edge="1" parent="1" source="-a8GtsBu0SZ16K51fPce-15" target="-a8GtsBu0SZ16K51fPce-14">
          <mxGeometry relative="1" as="geometry" />
        </mxCell>
        <mxCell id="-a8GtsBu0SZ16K51fPce-63" style="edgeStyle=orthogonalEdgeStyle;rounded=0;orthogonalLoop=1;jettySize=auto;html=1;exitX=0.5;exitY=0;exitDx=0;exitDy=0;entryX=0.5;entryY=1;entryDx=0;entryDy=0;strokeWidth=3;strokeColor=#4D4D4D;" edge="1" parent="1" source="-a8GtsBu0SZ16K51fPce-15" target="-a8GtsBu0SZ16K51fPce-12">
          <mxGeometry relative="1" as="geometry" />
        </mxCell>
        <mxCell id="-a8GtsBu0SZ16K51fPce-15" value="&lt;div style=&quot;font-size: 20px;&quot;&gt;&lt;font color=&quot;#4d4d4d&quot; style=&quot;font-size: 20px;&quot;&gt;&lt;b style=&quot;font-size: 20px;&quot;&gt;LifecycleHookInvoker&lt;/b&gt;&lt;/font&gt;&lt;/div&gt;" style="rounded=1;whiteSpace=wrap;html=1;strokeColor=#4D4D4D;strokeWidth=3;fillColor=#F7941E;fontFamily=Ubuntu;fontSize=20;" vertex="1" parent="1">
          <mxGeometry x="1600" y="790" width="250" height="60" as="geometry" />
        </mxCell>
        <mxCell id="-a8GtsBu0SZ16K51fPce-20" style="edgeStyle=orthogonalEdgeStyle;rounded=0;orthogonalLoop=1;jettySize=auto;html=1;entryX=0;entryY=0.5;entryDx=0;entryDy=0;strokeColor=#4D4D4D;strokeWidth=3;fontFamily=Ubuntu;fontSize=20;" edge="1" parent="1" source="-a8GtsBu0SZ16K51fPce-16" target="-a8GtsBu0SZ16K51fPce-19">
          <mxGeometry relative="1" as="geometry" />
        </mxCell>
        <mxCell id="-a8GtsBu0SZ16K51fPce-16" value="&lt;div style=&quot;font-size: 20px;&quot;&gt;&lt;font color=&quot;#4d4d4d&quot; style=&quot;font-size: 20px;&quot;&gt;&lt;b style=&quot;font-size: 20px;&quot;&gt;JsonAPI&lt;/b&gt;&lt;/font&gt;&lt;/div&gt;" style="rounded=1;whiteSpace=wrap;html=1;strokeColor=#4D4D4D;strokeWidth=3;fillColor=#F7941E;fontFamily=Ubuntu;fontSize=20;" vertex="1" parent="1">
          <mxGeometry x="280" y="670" width="120" height="60" as="geometry" />
        </mxCell>
        <mxCell id="-a8GtsBu0SZ16K51fPce-18" value="" style="rounded=1;whiteSpace=wrap;html=1;dashed=1;strokeColor=#4D4D4D;strokeWidth=3;fillColor=none;fontFamily=Ubuntu;fontSize=20;" vertex="1" parent="1">
          <mxGeometry x="415" y="650" width="390" height="240" as="geometry" />
        </mxCell>
        <mxCell id="-a8GtsBu0SZ16K51fPce-19" value="&lt;div style=&quot;font-size: 20px;&quot;&gt;&lt;font color=&quot;#4d4d4d&quot; style=&quot;font-size: 20px;&quot;&gt;&lt;b style=&quot;font-size: 20px;&quot;&gt;&amp;lt;BaseVisotor&amp;gt;&lt;/b&gt;&lt;/font&gt;&lt;br style=&quot;font-size: 20px;&quot;&gt;&lt;/div&gt;" style="rounded=1;whiteSpace=wrap;html=1;strokeColor=#4D4D4D;strokeWidth=3;fillColor=#F7941E;dashed=1;fontFamily=Ubuntu;fontSize=20;" vertex="1" parent="1">
          <mxGeometry x="530" y="670" width="160" height="60" as="geometry" />
        </mxCell>
        <mxCell id="-a8GtsBu0SZ16K51fPce-23" style="edgeStyle=orthogonalEdgeStyle;rounded=0;orthogonalLoop=1;jettySize=auto;html=1;exitX=1;exitY=0.5;exitDx=0;exitDy=0;strokeWidth=3;fontFamily=Ubuntu;fontSize=20;" edge="1" parent="1" source="-a8GtsBu0SZ16K51fPce-21" target="-a8GtsBu0SZ16K51fPce-22">
          <mxGeometry relative="1" as="geometry" />
        </mxCell>
        <mxCell id="-a8GtsBu0SZ16K51fPce-44" style="edgeStyle=orthogonalEdgeStyle;rounded=0;orthogonalLoop=1;jettySize=auto;html=1;exitX=0.5;exitY=0;exitDx=0;exitDy=0;entryX=0.5;entryY=1;entryDx=0;entryDy=0;strokeColor=#4D4D4D;strokeWidth=3;fontFamily=Ubuntu;fontSize=20;" edge="1" parent="1" source="-a8GtsBu0SZ16K51fPce-21" target="-a8GtsBu0SZ16K51fPce-19">
          <mxGeometry relative="1" as="geometry" />
        </mxCell>
        <mxCell id="-a8GtsBu0SZ16K51fPce-21" value="&lt;div style=&quot;font-size: 20px;&quot;&gt;&lt;font color=&quot;#4d4d4d&quot; style=&quot;font-size: 20px;&quot;&gt;&lt;b style=&quot;font-size: 20px;&quot;&gt;PostVisitor&lt;/b&gt;&lt;/font&gt;&lt;/div&gt;" style="rounded=1;whiteSpace=wrap;html=1;strokeColor=#4D4D4D;strokeWidth=3;fillColor=#F7941E;fontFamily=Ubuntu;fontSize=20;" vertex="1" parent="1">
          <mxGeometry x="550" y="790" width="120" height="60" as="geometry" />
        </mxCell>
        <mxCell id="-a8GtsBu0SZ16K51fPce-25" style="edgeStyle=orthogonalEdgeStyle;rounded=0;orthogonalLoop=1;jettySize=auto;html=1;exitX=1;exitY=0.5;exitDx=0;exitDy=0;entryX=0;entryY=0.5;entryDx=0;entryDy=0;strokeWidth=3;strokeColor=#4D4D4D;fontFamily=Ubuntu;fontSize=20;" edge="1" parent="1" source="-a8GtsBu0SZ16K51fPce-22" target="-a8GtsBu0SZ16K51fPce-10">
          <mxGeometry relative="1" as="geometry" />
        </mxCell>
        <mxCell id="-a8GtsBu0SZ16K51fPce-22" value="&lt;div style=&quot;font-size: 20px;&quot;&gt;&lt;font color=&quot;#4d4d4d&quot; style=&quot;font-size: 20px;&quot;&gt;&lt;b style=&quot;font-size: 20px;&quot;&gt;PersistentResource&lt;/b&gt;&lt;/font&gt;&lt;/div&gt;" style="rounded=1;whiteSpace=wrap;html=1;strokeColor=#4D4D4D;strokeWidth=3;fillColor=#F7941E;fontFamily=Ubuntu;fontSize=20;" vertex="1" parent="1">
          <mxGeometry x="840" y="790" width="200" height="60" as="geometry" />
        </mxCell>
        <mxCell id="-a8GtsBu0SZ16K51fPce-24" value="&lt;b style=&quot;font-size: 20px;&quot;&gt;&lt;font style=&quot;font-size: 20px;&quot;&gt;State&lt;/font&gt;&lt;/b&gt;" style="rounded=1;whiteSpace=wrap;html=1;dashed=1;strokeColor=#4D4D4D;strokeWidth=3;fillColor=none;fontFamily=Ubuntu;fontSize=20;" vertex="1" parent="1">
          <mxGeometry x="700" y="830" width="80" height="40" as="geometry" />
        </mxCell>
        <mxCell id="-a8GtsBu0SZ16K51fPce-26" value="&lt;div style=&quot;font-size: 20px;&quot;&gt;&lt;font color=&quot;#4d4d4d&quot; style=&quot;font-size: 20px;&quot;&gt;&lt;b style=&quot;font-size: 20px;&quot;&gt;createObject()&lt;/b&gt;&lt;/font&gt;&lt;/div&gt;" style="text;html=1;strokeColor=none;fillColor=none;align=center;verticalAlign=middle;whiteSpace=wrap;rounded=0;fontFamily=Ubuntu;fontSize=20;" vertex="1" parent="1">
          <mxGeometry x="1070" y="780" width="90" height="30" as="geometry" />
        </mxCell>
        <mxCell id="-a8GtsBu0SZ16K51fPce-28" value="&lt;div style=&quot;font-size: 20px;&quot;&gt;&lt;font color=&quot;#4d4d4d&quot; style=&quot;font-size: 20px;&quot;&gt;&lt;b style=&quot;font-size: 20px;&quot;&gt;publishLifecycleEvent()&lt;/b&gt;&lt;/font&gt;&lt;br style=&quot;font-size: 20px;&quot;&gt;&lt;/div&gt;" style="text;html=1;strokeColor=none;fillColor=none;align=center;verticalAlign=middle;whiteSpace=wrap;rounded=0;fontFamily=Ubuntu;fontSize=20;" vertex="1" parent="1">
          <mxGeometry x="1410" y="780" width="140" height="30" as="geometry" />
        </mxCell>
        <mxCell id="-a8GtsBu0SZ16K51fPce-32" value="&lt;div style=&quot;font-size: 20px;&quot;&gt;&lt;font color=&quot;#4d4d4d&quot; style=&quot;font-size: 20px;&quot;&gt;&lt;b style=&quot;font-size: 20px;&quot;&gt;Jersey Binding&lt;/b&gt;&lt;/font&gt;&lt;br style=&quot;font-size: 20px;&quot;&gt;&lt;/div&gt;" style="text;html=1;strokeColor=none;fillColor=none;align=center;verticalAlign=middle;whiteSpace=wrap;rounded=0;fontFamily=Ubuntu;fontSize=20;" vertex="1" parent="1">
          <mxGeometry x="1330" y="560" width="140" height="30" as="geometry" />
        </mxCell>
        <mxCell id="-a8GtsBu0SZ16K51fPce-37" style="edgeStyle=orthogonalEdgeStyle;rounded=0;orthogonalLoop=1;jettySize=auto;html=1;exitX=0;exitY=0.5;exitDx=0;exitDy=0;entryX=1;entryY=0.5;entryDx=0;entryDy=0;strokeWidth=3;strokeColor=#4D4D4D;fontFamily=Ubuntu;fontSize=20;" edge="1" parent="1" source="-a8GtsBu0SZ16K51fPce-36" target="UFdFHpr_LtkekEf1Vfaj-3">
          <mxGeometry relative="1" as="geometry" />
        </mxCell>
        <mxCell id="-a8GtsBu0SZ16K51fPce-36" value="&lt;div style=&quot;font-size: 20px;&quot;&gt;&lt;font color=&quot;#4d4d4d&quot; style=&quot;font-size: 20px;&quot;&gt;&lt;b style=&quot;font-size: 20px;&quot;&gt;TableExportOperation&lt;/b&gt;&lt;/font&gt;&lt;br style=&quot;font-size: 20px;&quot;&gt;&lt;/div&gt;" style="rounded=1;whiteSpace=wrap;html=1;strokeColor=#4D4D4D;strokeWidth=3;fillColor=#F7941E;dashed=1;fontFamily=Ubuntu;fontSize=20;" vertex="1" parent="1">
          <mxGeometry x="920" y="300" width="260" height="60" as="geometry" />
        </mxCell>
        <mxCell id="-a8GtsBu0SZ16K51fPce-40" style="edgeStyle=orthogonalEdgeStyle;rounded=0;orthogonalLoop=1;jettySize=auto;html=1;entryX=0.5;entryY=0;entryDx=0;entryDy=0;exitX=0;exitY=0.5;exitDx=0;exitDy=0;strokeColor=#4D4D4D;strokeWidth=3;fontFamily=Ubuntu;fontSize=20;" edge="1" parent="1" source="-a8GtsBu0SZ16K51fPce-38" target="-a8GtsBu0SZ16K51fPce-36">
          <mxGeometry relative="1" as="geometry" />
        </mxCell>
        <mxCell id="-a8GtsBu0SZ16K51fPce-38" value="&lt;div style=&quot;font-size: 20px;&quot;&gt;&lt;font color=&quot;#4d4d4d&quot; style=&quot;font-size: 20px;&quot;&gt;&lt;b style=&quot;font-size: 20px;&quot;&gt;JsonApiTableExportOperation&lt;/b&gt;&lt;/font&gt;&lt;br style=&quot;font-size: 20px;&quot;&gt;&lt;/div&gt;" style="rounded=1;whiteSpace=wrap;html=1;strokeColor=#4D4D4D;strokeWidth=3;fillColor=#F7941E;fontFamily=Ubuntu;fontSize=20;" vertex="1" parent="1">
          <mxGeometry x="1090" y="200" width="330" height="60" as="geometry" />
        </mxCell>
        <mxCell id="-a8GtsBu0SZ16K51fPce-42" style="edgeStyle=orthogonalEdgeStyle;rounded=0;orthogonalLoop=1;jettySize=auto;html=1;exitX=0;exitY=0.5;exitDx=0;exitDy=0;entryX=0.5;entryY=1;entryDx=0;entryDy=0;strokeWidth=3;strokeColor=#4D4D4D;fontFamily=Ubuntu;fontSize=20;" edge="1" parent="1" source="-a8GtsBu0SZ16K51fPce-41" target="-a8GtsBu0SZ16K51fPce-36">
          <mxGeometry relative="1" as="geometry" />
        </mxCell>
        <mxCell id="-a8GtsBu0SZ16K51fPce-41" value="&lt;div style=&quot;font-size: 20px;&quot;&gt;&lt;font color=&quot;#4d4d4d&quot; style=&quot;font-size: 20px;&quot;&gt;&lt;b style=&quot;font-size: 20px;&quot;&gt;GraphQLTableExportOperation&lt;/b&gt;&lt;/font&gt;&lt;br style=&quot;font-size: 20px;&quot;&gt;&lt;/div&gt;" style="rounded=1;whiteSpace=wrap;html=1;strokeColor=#4D4D4D;strokeWidth=3;fillColor=#F7941E;fontFamily=Ubuntu;fontSize=20;" vertex="1" parent="1">
          <mxGeometry x="1090" y="385.5" width="320" height="60" as="geometry" />
        </mxCell>
        <mxCell id="-a8GtsBu0SZ16K51fPce-45" value="&lt;div style=&quot;font-size: 20px;&quot;&gt;&lt;font color=&quot;#4d4d4d&quot; style=&quot;font-size: 20px;&quot;&gt;&lt;b style=&quot;font-size: 20px;&quot;&gt;getTriggers()&lt;/b&gt;&lt;/font&gt;&lt;br style=&quot;font-size: 20px;&quot;&gt;&lt;/div&gt;" style="text;html=1;strokeColor=none;fillColor=none;align=center;verticalAlign=middle;whiteSpace=wrap;rounded=0;fontFamily=Ubuntu;fontSize=20;" vertex="1" parent="1">
          <mxGeometry x="1080" y="620" width="140" height="30" as="geometry" />
        </mxCell>
        <mxCell id="-a8GtsBu0SZ16K51fPce-48" value="&lt;div style=&quot;font-size: 20px;&quot;&gt;&lt;font color=&quot;#4d4d4d&quot; style=&quot;font-size: 20px;&quot;&gt;&lt;b style=&quot;font-size: 20px;&quot;&gt;storeResults()&lt;/b&gt;&lt;/font&gt;&lt;br style=&quot;font-size: 20px;&quot;&gt;&lt;/div&gt;" style="text;html=1;strokeColor=none;fillColor=none;align=center;verticalAlign=middle;whiteSpace=wrap;rounded=0;fontFamily=Ubuntu;fontSize=20;" vertex="1" parent="1">
          <mxGeometry x="640" y="290" width="140" height="30" as="geometry" />
        </mxCell>
        <mxCell id="-a8GtsBu0SZ16K51fPce-55" style="edgeStyle=orthogonalEdgeStyle;rounded=0;orthogonalLoop=1;jettySize=auto;html=1;exitX=1;exitY=0.5;exitDx=0;exitDy=0;entryX=0;entryY=0.5;entryDx=0;entryDy=0;strokeWidth=3;strokeColor=#4D4D4D;fontFamily=Ubuntu;fontSize=20;" edge="1" parent="1" source="-a8GtsBu0SZ16K51fPce-49" target="-a8GtsBu0SZ16K51fPce-53">
          <mxGeometry relative="1" as="geometry" />
        </mxCell>
        <mxCell id="-a8GtsBu0SZ16K51fPce-49" value="&lt;div style=&quot;font-size: 20px;&quot;&gt;&lt;font color=&quot;#4d4d4d&quot; style=&quot;font-size: 20px;&quot;&gt;&lt;b style=&quot;font-size: 20px;&quot;&gt;GraphQLEndpoint&lt;/b&gt;&lt;/font&gt;&lt;/div&gt;" style="rounded=1;whiteSpace=wrap;html=1;strokeColor=#4D4D4D;strokeWidth=3;fillColor=#F7941E;fontFamily=Ubuntu;fontSize=20;" vertex="1" parent="1">
          <mxGeometry x="5" y="900" width="190" height="60" as="geometry" />
        </mxCell>
        <mxCell id="-a8GtsBu0SZ16K51fPce-51" style="edgeStyle=orthogonalEdgeStyle;rounded=0;orthogonalLoop=1;jettySize=auto;html=1;exitX=1;exitY=0.5;exitDx=0;exitDy=0;strokeWidth=3;strokeColor=#4D4D4D;fontFamily=Ubuntu;fontSize=20;" edge="1" parent="1" source="-a8GtsBu0SZ16K51fPce-50" target="-a8GtsBu0SZ16K51fPce-22">
          <mxGeometry relative="1" as="geometry" />
        </mxCell>
        <mxCell id="-a8GtsBu0SZ16K51fPce-50" value="&lt;div style=&quot;font-size: 20px;&quot;&gt;&lt;font color=&quot;#4d4d4d&quot; style=&quot;font-size: 20px;&quot;&gt;&lt;b style=&quot;font-size: 20px;&quot;&gt;PersistentResourceDataFetcher&lt;/b&gt;&lt;/font&gt;&lt;/div&gt;" style="rounded=1;whiteSpace=wrap;html=1;strokeColor=#4D4D4D;strokeWidth=3;fillColor=#F7941E;fontFamily=Ubuntu;fontSize=20;" vertex="1" parent="1">
          <mxGeometry x="447.5" y="900" width="325" height="60" as="geometry" />
        </mxCell>
        <mxCell id="-a8GtsBu0SZ16K51fPce-52" value="&lt;div style=&quot;font-size: 20px;&quot;&gt;&lt;font color=&quot;#4d4d4d&quot; style=&quot;font-size: 20px;&quot;&gt;&lt;b style=&quot;font-size: 20px;&quot;&gt;createObject()&lt;/b&gt;&lt;/font&gt;&lt;/div&gt;" style="text;html=1;strokeColor=none;fillColor=none;align=center;verticalAlign=middle;whiteSpace=wrap;rounded=0;fontFamily=Ubuntu;fontSize=20;" vertex="1" parent="1">
          <mxGeometry x="904.52" y="880" width="90" height="30" as="geometry" />
        </mxCell>
        <mxCell id="-a8GtsBu0SZ16K51fPce-54" style="edgeStyle=orthogonalEdgeStyle;rounded=0;orthogonalLoop=1;jettySize=auto;html=1;exitX=1;exitY=0.5;exitDx=0;exitDy=0;strokeWidth=3;strokeColor=#4D4D4D;fontFamily=Ubuntu;fontSize=20;" edge="1" parent="1" source="-a8GtsBu0SZ16K51fPce-53" target="-a8GtsBu0SZ16K51fPce-50">
          <mxGeometry relative="1" as="geometry" />
        </mxCell>
        <mxCell id="-a8GtsBu0SZ16K51fPce-53" value="&lt;div style=&quot;font-size: 20px;&quot;&gt;&lt;font color=&quot;#4d4d4d&quot; style=&quot;font-size: 20px;&quot;&gt;&lt;b style=&quot;font-size: 20px;&quot;&gt;QueryRunner&lt;/b&gt;&lt;/font&gt;&lt;/div&gt;" style="rounded=1;whiteSpace=wrap;html=1;strokeColor=#4D4D4D;strokeWidth=3;fillColor=#F7941E;fontFamily=Ubuntu;fontSize=20;" vertex="1" parent="1">
          <mxGeometry x="280" y="900" width="120" height="60" as="geometry" />
        </mxCell>
        <mxCell id="-a8GtsBu0SZ16K51fPce-57" style="edgeStyle=orthogonalEdgeStyle;rounded=0;orthogonalLoop=1;jettySize=auto;html=1;exitX=0.67;exitY=1;exitDx=0;exitDy=0;exitPerimeter=0;strokeColor=#4D4D4D;strokeWidth=3;fontFamily=Ubuntu;fontSize=20;" edge="1" parent="1" source="-a8GtsBu0SZ16K51fPce-56" target="-a8GtsBu0SZ16K51fPce-13">
          <mxGeometry relative="1" as="geometry">
            <Array as="points">
              <mxPoint x="-236" y="820" />
              <mxPoint x="140" y="820" />
            </Array>
          </mxGeometry>
        </mxCell>
        <mxCell id="-a8GtsBu0SZ16K51fPce-58" style="edgeStyle=orthogonalEdgeStyle;rounded=0;orthogonalLoop=1;jettySize=auto;html=1;exitX=0.67;exitY=1;exitDx=0;exitDy=0;exitPerimeter=0;entryX=0;entryY=0.5;entryDx=0;entryDy=0;strokeColor=#4D4D4D;strokeWidth=3;fontFamily=Ubuntu;fontSize=20;" edge="1" parent="1" source="-a8GtsBu0SZ16K51fPce-56" target="-a8GtsBu0SZ16K51fPce-49">
          <mxGeometry relative="1" as="geometry" />
        </mxCell>
        <mxCell id="-a8GtsBu0SZ16K51fPce-56" value="" style="points=[[0.35,0,0],[0.98,0.51,0],[1,0.71,0],[0.67,1,0],[0,0.795,0],[0,0.65,0]];verticalLabelPosition=bottom;sketch=0;html=1;verticalAlign=top;aspect=fixed;align=center;pointerEvents=1;shape=mxgraph.cisco19.user;fillColor=#005073;strokeColor=none;fontFamily=Ubuntu;fontSize=20;strokeWidth=2;" vertex="1" parent="1">
          <mxGeometry x="-270" y="675" width="50" height="50" as="geometry" />
        </mxCell>
        <mxCell id="-a8GtsBu0SZ16K51fPce-59" style="edgeStyle=orthogonalEdgeStyle;rounded=0;orthogonalLoop=1;jettySize=auto;html=1;exitX=0;exitY=0.5;exitDx=0;exitDy=0;entryX=0.35;entryY=0;entryDx=0;entryDy=0;entryPerimeter=0;strokeColor=#4D4D4D;strokeWidth=3;fontFamily=Ubuntu;fontSize=20;" edge="1" parent="1" source="UFdFHpr_LtkekEf1Vfaj-1" target="-a8GtsBu0SZ16K51fPce-56">
          <mxGeometry relative="1" as="geometry" />
        </mxCell>
        <mxCell id="-a8GtsBu0SZ16K51fPce-60" value="&lt;div style=&quot;font-size: 20px;&quot;&gt;&lt;font color=&quot;#4d4d4d&quot; style=&quot;font-size: 20px;&quot;&gt;&lt;b style=&quot;font-size: 20px;&quot;&gt;send async query&lt;/b&gt;&lt;/font&gt;&lt;/div&gt;" style="text;html=1;strokeColor=none;fillColor=none;align=center;verticalAlign=middle;whiteSpace=wrap;rounded=0;fontFamily=Ubuntu;fontSize=20;" vertex="1" parent="1">
          <mxGeometry x="-230" y="755" width="110" height="30" as="geometry" />
        </mxCell>
        <mxCell id="-a8GtsBu0SZ16K51fPce-61" value="&lt;div style=&quot;font-size: 20px;&quot;&gt;&lt;font color=&quot;#4d4d4d&quot; style=&quot;font-size: 20px;&quot;&gt;&lt;b style=&quot;font-size: 20px;&quot;&gt;get async&amp;nbsp;&lt;/b&gt;&lt;/font&gt;&lt;/div&gt;&lt;div style=&quot;font-size: 20px;&quot;&gt;&lt;font color=&quot;#4d4d4d&quot; style=&quot;font-size: 20px;&quot;&gt;&lt;b style=&quot;font-size: 20px;&quot;&gt;query status&lt;/b&gt;&lt;/font&gt;&lt;/div&gt;" style="text;html=1;strokeColor=none;fillColor=none;align=center;verticalAlign=middle;whiteSpace=wrap;rounded=0;fontFamily=Ubuntu;fontSize=20;" vertex="1" parent="1">
          <mxGeometry x="-250" y="550" width="130" height="30" as="geometry" />
        </mxCell>
      </root>
    </mxGraphModel>
  </diagram>
</mxfile>
